<svg class="vector" width="300px" height="300px" xmlns="http://www.w3.org/2000/svg" baseProfile="full" version="1.1" style="width: 300px; height: 300px; stroke: white; stroke-width: 10; fill: none; stroke-linecap: square; background:black"><rect width="300" height="300" style="fill:rgb(0,0,0);stroke:none" />
  <path d="M150.0,90.0 A60,60 0 0,1 210.0,150.0 A-60,60 0 0,1 150.0,210.0 A-60,-60 0 0,1 90.0,150.0 A60,-60 0 0,1 150.0,90.0 M120.0,180.0 L120.0,180.0 L180.0,120.0 M150.0,105.0 A45,45 0 0,1 195.0,150.0 A-45,45 0 0,1 150.0,195.0 A-45,-45 0 0,1 105.0,150.0 A45,-45 0 0,1 150.0,105.0 Z    "></path>
</svg>