<svg xmlns="http://www.w3.org/2000/svg" baseProfile="full" version="1.1" style="fill: none;" width="300px" height="300px"><path style="stroke-width: 12px; stroke-linecap: round; stroke-linejoin: round; stroke: rgb(255, 255, 255); fill: none;" d=""/><path style="stroke-width: 12px; stroke-linecap: round; stroke-linejoin: round; stroke: rgb(62, 61, 66); fill: none;" d=""/><path style="stroke-width: 12px; stroke-linecap: round; stroke-linejoin: round; stroke: rgb(255, 255, 255); fill: none;" d="M60,240 L60,240 L60,90 A30,30 0 0,1 90,60 L90,60 A30,30 0 0,1 120,90 L120,90 A30,30 0 0,1 150,60 A30,30 0 0,1 180,90 M120,90 L120,90 L120,210 A30,30 0 0,0 150,240 L150,240 A30,30 0 0,0 180,210 L180,210 A30,30 0 0,0 210,240 A30,30 0 0,0 240,210 M180,90 L180,90 L180,210 M240,210 L240,210 L240,60 "/></svg>