<svg xmlns="http://www.w3.org/2000/svg" baseProfile="full" version="1.1" style="fill: none;" width="300px" height="300px"><path style="stroke-width: 12px; stroke-linecap: round; stroke-linejoin: round; stroke: rgb(255, 255, 255); fill: none;" d=""/><path style="stroke-width: 12px; stroke-linecap: round; stroke-linejoin: round; stroke: rgb(62, 61, 66); fill: none;" d=""/><path style="stroke-width: 12px; stroke-linecap: square; stroke-linejoin: round; stroke: rgb(255, 255, 255); fill: none;" d="M60,60 L60,60 L240,60 M60,240 L60,240 L240,240 M75,60 L75,60 L75,240 M225,60 L225,60 L225,240 M75,150 L75,150 L225,150 M90,60 A15,15 0 0,0 75,75 M210,60 A15,15 0 0,1 225,75 M240,60 A15,15 0 0,0 225,75 M60,60 A15,15 0 0,1 75,75 M60,240 A15,15 0 0,0 75,225 L75,225 A15,15 0 0,0 90,240 M210,240 A15,15 0 0,0 225,225 L225,225 A15,15 0 0,0 240,240 M225,240 L225,225 "/></svg>