<svg xmlns="http://www.w3.org/2000/svg" baseProfile="full" version="1.1" style="fill: none;" width="300px" height="300px"><path style="stroke-width: 12px; stroke-linecap: round; stroke-linejoin: round; stroke: rgb(255, 255, 255); fill: none;" d=""/><path style="stroke-width: 12px; stroke-linecap: round; stroke-linejoin: round; stroke: rgb(62, 61, 66); fill: none;" d=""/><path style="stroke-width: 12px; stroke-linecap: round; stroke-linejoin: round; stroke: rgb(255, 255, 255); fill: none;" d="M150,60 A30,30 0 0,0 180,90 L210,90 A30,30 0 0,1 240,120 L240,120 A30,30 0 0,1 210,150 L210,150 L90,150 A30,30 0 0,0 60,180 L60,180 A30,30 0 0,0 90,210 L90,210 L120,210 A30,30 0 0,1 150,240 "/></svg>