<svg xmlns="http://www.w3.org/2000/svg" baseProfile="full" version="1.1" style="fill: none;" width="300px" height="300px"><path style="stroke-width: 12px; stroke-linecap: round; stroke-linejoin: round; stroke: rgb(255, 255, 255); fill: none;" d=""/><path style="stroke-width: 12px; stroke-linecap: round; stroke-linejoin: round; stroke: rgb(62, 61, 66); fill: none;" d=""/><path style="stroke-width: 12px; stroke-linecap: square; stroke-linejoin: round; stroke: rgb(255, 255, 255); fill: none;" d="M60,60 L60,60 L240,60 M75,60 L75,60 L75,240 M60,240 L60,240 L240,240 M225,240 L225,240 L225,60 M75,195 L75,195 L225,195 M180,240 L180,240 L180,60 M60,60 A15,15 0 0,1 75,75 L75,75 A15,15 0 0,1 90,60 M165,60 A15,15 0 0,1 180,75 L180,75 A15,15 0 0,1 195,60 M210,60 A15,15 0 0,1 225,75 L225,75 A15,15 0 0,1 240,60 M60,240 A15,15 0 0,0 75,225 L75,225 A15,15 0 0,0 90,240 M180,225 A15,15 0 0,1 165,240 M180,225 A15,15 0 0,0 195,240 M225,225 A15,15 0 0,1 210,240 M225,225 A15,15 0 0,0 240,240 "/></svg>