<svg xmlns="http://www.w3.org/2000/svg" baseProfile="full" version="1.1" style="fill: none;" width="300px" height="300px"><path style="stroke-width: 12px; stroke-linecap: round; stroke-linejoin: round; stroke: rgb(255, 255, 255); fill: none;" d=""/><path style="stroke-width: 12px; stroke-linecap: round; stroke-linejoin: round; stroke: rgb(62, 61, 66); fill: none;" d=""/><path style="stroke-width: 12px; stroke-linecap: square; stroke-linejoin: round; stroke: rgb(255, 255, 255); fill: none;" d="M150,60 L150,60 L150,240 M60,105 L60,105 L240,105 M150,90 A15,15 0 0,1 135,105 L135,105 A15,15 0 0,1 150,120 M150,90 A15,15 0 0,0 165,105 L165,105 A15,15 0 0,0 150,120 M60,195 L60,195 L240,195 M150,180 A15,15 0 0,1 135,195 L135,195 A15,15 0 0,1 150,210 L150,210 A15,15 0 0,1 165,195 M150,180 A15,15 0 0,0 165,195 "/></svg>