<svg xmlns="http://www.w3.org/2000/svg" xmlns:xlink="http://www.w3.org/1999/xlink" preserveAspectRatio="xMidYMid" width="2200" height="1467" viewBox="0 0 2200 1467">
  <defs>
    <style>
      .cls-1 {
        fill: #000;
        fill-rule: evenodd;
      }
    </style>
  </defs>
  <path d="M1472.648,1056.061 C1454.781,1056.061 1440.297,1041.577 1440.297,1023.710 C1440.297,1005.843 1454.781,991.358 1472.648,991.358 C1490.516,991.358 1505.000,1005.843 1505.000,1023.710 C1505.000,1041.577 1490.516,1056.061 1472.648,1056.061 ZM1472.648,973.173 C1454.781,973.173 1440.297,958.689 1440.297,940.821 C1440.297,922.954 1454.781,908.470 1472.648,908.470 C1490.516,908.470 1505.000,922.954 1505.000,940.821 C1505.000,958.689 1490.516,973.173 1472.648,973.173 ZM1472.648,890.234 C1454.781,890.234 1440.297,875.750 1440.297,857.883 C1440.297,840.016 1454.781,825.531 1472.648,825.531 C1490.516,825.531 1505.000,840.016 1505.000,857.883 C1505.000,875.750 1490.516,890.234 1472.648,890.234 ZM1472.648,807.296 C1454.781,807.296 1440.297,792.811 1440.297,774.944 C1440.297,757.077 1454.781,742.593 1472.648,742.593 C1490.516,742.593 1505.000,757.077 1505.000,774.944 C1505.000,792.811 1490.516,807.296 1472.648,807.296 ZM1472.648,724.407 C1454.781,724.407 1440.297,709.923 1440.297,692.056 C1440.297,674.189 1454.781,659.704 1472.648,659.704 C1490.516,659.704 1505.000,674.189 1505.000,692.056 C1505.000,709.923 1490.516,724.407 1472.648,724.407 ZM1472.648,641.469 C1454.781,641.469 1440.297,626.984 1440.297,609.117 C1440.297,591.250 1454.781,576.766 1472.648,576.766 C1490.516,576.766 1505.000,591.250 1505.000,609.117 C1505.000,626.984 1490.516,641.469 1472.648,641.469 ZM1472.648,558.530 C1454.781,558.530 1440.297,544.046 1440.297,526.179 C1440.297,508.311 1454.781,493.827 1472.648,493.827 C1490.516,493.827 1505.000,508.311 1505.000,526.179 C1505.000,544.046 1490.516,558.530 1472.648,558.530 ZM1472.648,475.642 C1454.781,475.642 1440.297,461.157 1440.297,443.290 C1440.297,425.423 1454.781,410.939 1472.648,410.939 C1490.516,410.939 1505.000,425.423 1505.000,443.290 C1505.000,461.157 1490.516,475.642 1472.648,475.642 ZM1472.648,392.703 C1454.781,392.703 1440.297,378.219 1440.297,360.352 C1440.297,342.484 1454.781,328.000 1472.648,328.000 C1490.516,328.000 1505.000,342.484 1505.000,360.352 C1505.000,378.219 1490.516,392.703 1472.648,392.703 ZM1389.710,1139.000 C1371.843,1139.000 1357.358,1124.516 1357.358,1106.648 C1357.358,1088.781 1371.843,1074.297 1389.710,1074.297 C1407.577,1074.297 1422.061,1088.781 1422.061,1106.648 C1422.061,1124.516 1407.577,1139.000 1389.710,1139.000 ZM1389.710,1056.061 C1371.843,1056.061 1357.358,1041.577 1357.358,1023.710 C1357.358,1005.843 1371.843,991.358 1389.710,991.358 C1407.577,991.358 1422.061,1005.843 1422.061,1023.710 C1422.061,1041.577 1407.577,1056.061 1389.710,1056.061 ZM1389.710,973.173 C1371.843,973.173 1357.358,958.689 1357.358,940.821 C1357.358,922.954 1371.843,908.470 1389.710,908.470 C1407.577,908.470 1422.061,922.954 1422.061,940.821 C1422.061,958.689 1407.577,973.173 1389.710,973.173 ZM1389.710,890.234 C1371.843,890.234 1357.358,875.750 1357.358,857.883 C1357.358,840.016 1371.843,825.531 1389.710,825.531 C1407.577,825.531 1422.061,840.016 1422.061,857.883 C1422.061,875.750 1407.577,890.234 1389.710,890.234 ZM1389.710,807.296 C1371.843,807.296 1357.358,792.811 1357.358,774.944 C1357.358,757.077 1371.843,742.593 1389.710,742.593 C1407.577,742.593 1422.061,757.077 1422.061,774.944 C1422.061,792.811 1407.577,807.296 1389.710,807.296 ZM1389.710,724.407 C1371.843,724.407 1357.358,709.923 1357.358,692.056 C1357.358,674.189 1371.843,659.704 1389.710,659.704 C1407.577,659.704 1422.061,674.189 1422.061,692.056 C1422.061,709.923 1407.577,724.407 1389.710,724.407 ZM1389.710,641.469 C1371.843,641.469 1357.358,626.984 1357.358,609.117 C1357.358,591.250 1371.843,576.766 1389.710,576.766 C1407.577,576.766 1422.061,591.250 1422.061,609.117 C1422.061,626.984 1407.577,641.469 1389.710,641.469 ZM1389.710,558.530 C1371.843,558.530 1357.358,544.046 1357.358,526.179 C1357.358,508.311 1371.843,493.827 1389.710,493.827 C1407.577,493.827 1422.061,508.311 1422.061,526.179 C1422.061,544.046 1407.577,558.530 1389.710,558.530 ZM1389.710,475.642 C1371.843,475.642 1357.358,461.157 1357.358,443.290 C1357.358,425.423 1371.843,410.939 1389.710,410.939 C1407.577,410.939 1422.061,425.423 1422.061,443.290 C1422.061,461.157 1407.577,475.642 1389.710,475.642 ZM1389.710,392.703 C1371.843,392.703 1357.358,378.219 1357.358,360.352 C1357.358,342.484 1371.843,328.000 1389.710,328.000 C1407.577,328.000 1422.061,342.484 1422.061,360.352 C1422.061,378.219 1407.577,392.703 1389.710,392.703 ZM1306.821,1139.000 C1288.954,1139.000 1274.470,1124.516 1274.470,1106.648 C1274.470,1088.781 1288.954,1074.297 1306.821,1074.297 C1324.689,1074.297 1339.173,1088.781 1339.173,1106.648 C1339.173,1124.516 1324.689,1139.000 1306.821,1139.000 ZM1306.821,1056.061 C1288.954,1056.061 1274.470,1041.577 1274.470,1023.710 C1274.470,1005.843 1288.954,991.358 1306.821,991.358 C1324.689,991.358 1339.173,1005.843 1339.173,1023.710 C1339.173,1041.577 1324.689,1056.061 1306.821,1056.061 ZM1306.821,973.173 C1288.954,973.173 1274.470,958.689 1274.470,940.821 C1274.470,922.954 1288.954,908.470 1306.821,908.470 C1324.689,908.470 1339.173,922.954 1339.173,940.821 C1339.173,958.689 1324.689,973.173 1306.821,973.173 ZM1306.821,890.234 C1288.954,890.234 1274.470,875.750 1274.470,857.883 C1274.470,840.016 1288.954,825.531 1306.821,825.531 C1324.689,825.531 1339.173,840.016 1339.173,857.883 C1339.173,875.750 1324.689,890.234 1306.821,890.234 ZM1306.821,807.296 C1288.954,807.296 1274.470,792.811 1274.470,774.944 C1274.470,757.077 1288.954,742.593 1306.821,742.593 C1324.689,742.593 1339.173,757.077 1339.173,774.944 C1339.173,792.811 1324.689,807.296 1306.821,807.296 ZM1306.821,724.407 C1288.954,724.407 1274.470,709.923 1274.470,692.056 C1274.470,674.189 1288.954,659.704 1306.821,659.704 C1324.689,659.704 1339.173,674.189 1339.173,692.056 C1339.173,709.923 1324.689,724.407 1306.821,724.407 ZM1306.821,641.469 C1288.954,641.469 1274.470,626.984 1274.470,609.117 C1274.470,591.250 1288.954,576.766 1306.821,576.766 C1324.689,576.766 1339.173,591.250 1339.173,609.117 C1339.173,626.984 1324.689,641.469 1306.821,641.469 ZM1306.821,558.530 C1288.954,558.530 1274.470,544.046 1274.470,526.179 C1274.470,508.311 1288.954,493.827 1306.821,493.827 C1324.689,493.827 1339.173,508.311 1339.173,526.179 C1339.173,544.046 1324.689,558.530 1306.821,558.530 ZM1306.821,475.642 C1288.954,475.642 1274.470,461.157 1274.470,443.290 C1274.470,425.423 1288.954,410.939 1306.821,410.939 C1324.689,410.939 1339.173,425.423 1339.173,443.290 C1339.173,461.157 1324.689,475.642 1306.821,475.642 ZM1306.821,392.703 C1288.954,392.703 1274.470,378.219 1274.470,360.352 C1274.470,342.484 1288.954,328.000 1306.821,328.000 C1324.689,328.000 1339.173,342.484 1339.173,360.352 C1339.173,378.219 1324.689,392.703 1306.821,392.703 ZM1223.883,1139.000 C1206.016,1139.000 1191.531,1124.516 1191.531,1106.648 C1191.531,1088.781 1206.016,1074.297 1223.883,1074.297 C1241.750,1074.297 1256.234,1088.781 1256.234,1106.648 C1256.234,1124.516 1241.750,1139.000 1223.883,1139.000 ZM1223.883,1056.061 C1206.016,1056.061 1191.531,1041.577 1191.531,1023.710 C1191.531,1005.843 1206.016,991.358 1223.883,991.358 C1241.750,991.358 1256.234,1005.843 1256.234,1023.710 C1256.234,1041.577 1241.750,1056.061 1223.883,1056.061 ZM1223.883,973.173 C1206.016,973.173 1191.531,958.689 1191.531,940.821 C1191.531,922.954 1206.016,908.470 1223.883,908.470 C1241.750,908.470 1256.234,922.954 1256.234,940.821 C1256.234,958.689 1241.750,973.173 1223.883,973.173 ZM1223.883,890.234 C1206.016,890.234 1191.531,875.750 1191.531,857.883 C1191.531,840.016 1206.016,825.531 1223.883,825.531 C1241.750,825.531 1256.234,840.016 1256.234,857.883 C1256.234,875.750 1241.750,890.234 1223.883,890.234 ZM1223.883,807.296 C1206.016,807.296 1191.531,792.811 1191.531,774.944 C1191.531,757.077 1206.016,742.593 1223.883,742.593 C1241.750,742.593 1256.234,757.077 1256.234,774.944 C1256.234,792.811 1241.750,807.296 1223.883,807.296 ZM1223.883,724.407 C1206.016,724.407 1191.531,709.923 1191.531,692.056 C1191.531,674.189 1206.016,659.704 1223.883,659.704 C1241.750,659.704 1256.234,674.189 1256.234,692.056 C1256.234,709.923 1241.750,724.407 1223.883,724.407 ZM1223.883,641.469 C1206.016,641.469 1191.531,626.984 1191.531,609.117 C1191.531,591.250 1206.016,576.766 1223.883,576.766 C1241.750,576.766 1256.234,591.250 1256.234,609.117 C1256.234,626.984 1241.750,641.469 1223.883,641.469 ZM1223.883,558.530 C1206.016,558.530 1191.531,544.046 1191.531,526.179 C1191.531,508.311 1206.016,493.827 1223.883,493.827 C1241.750,493.827 1256.234,508.311 1256.234,526.179 C1256.234,544.046 1241.750,558.530 1223.883,558.530 ZM1223.883,475.642 C1206.016,475.642 1191.531,461.157 1191.531,443.290 C1191.531,425.423 1206.016,410.939 1223.883,410.939 C1241.750,410.939 1256.234,425.423 1256.234,443.290 C1256.234,461.157 1241.750,475.642 1223.883,475.642 ZM1223.883,392.703 C1206.016,392.703 1191.531,378.219 1191.531,360.352 C1191.531,342.484 1206.016,328.000 1223.883,328.000 C1241.750,328.000 1256.234,342.484 1256.234,360.352 C1256.234,378.219 1241.750,392.703 1223.883,392.703 ZM1140.944,1139.000 C1123.077,1139.000 1108.593,1124.516 1108.593,1106.648 C1108.593,1088.781 1123.077,1074.297 1140.944,1074.297 C1158.811,1074.297 1173.296,1088.781 1173.296,1106.648 C1173.296,1124.516 1158.811,1139.000 1140.944,1139.000 ZM1140.944,1056.061 C1123.077,1056.061 1108.593,1041.577 1108.593,1023.710 C1108.593,1005.843 1123.077,991.358 1140.944,991.358 C1158.811,991.358 1173.296,1005.843 1173.296,1023.710 C1173.296,1041.577 1158.811,1056.061 1140.944,1056.061 ZM1140.944,973.173 C1123.077,973.173 1108.593,958.689 1108.593,940.821 C1108.593,922.954 1123.077,908.470 1140.944,908.470 C1158.811,908.470 1173.296,922.954 1173.296,940.821 C1173.296,958.689 1158.811,973.173 1140.944,973.173 ZM1140.944,890.234 C1123.077,890.234 1108.593,875.750 1108.593,857.883 C1108.593,840.016 1123.077,825.531 1140.944,825.531 C1158.811,825.531 1173.296,840.016 1173.296,857.883 C1173.296,875.750 1158.811,890.234 1140.944,890.234 ZM1140.944,807.296 C1123.077,807.296 1108.593,792.811 1108.593,774.944 C1108.593,757.077 1123.077,742.593 1140.944,742.593 C1158.811,742.593 1173.296,757.077 1173.296,774.944 C1173.296,792.811 1158.811,807.296 1140.944,807.296 ZM1140.944,724.407 C1123.077,724.407 1108.593,709.923 1108.593,692.056 C1108.593,674.189 1123.077,659.704 1140.944,659.704 C1158.811,659.704 1173.296,674.189 1173.296,692.056 C1173.296,709.923 1158.811,724.407 1140.944,724.407 ZM1140.944,641.469 C1123.077,641.469 1108.593,626.984 1108.593,609.117 C1108.593,591.250 1123.077,576.766 1140.944,576.766 C1158.811,576.766 1173.296,591.250 1173.296,609.117 C1173.296,626.984 1158.811,641.469 1140.944,641.469 ZM1140.944,558.530 C1123.077,558.530 1108.593,544.046 1108.593,526.179 C1108.593,508.311 1123.077,493.827 1140.944,493.827 C1158.811,493.827 1173.296,508.311 1173.296,526.179 C1173.296,544.046 1158.811,558.530 1140.944,558.530 ZM1140.944,475.642 C1123.077,475.642 1108.593,461.157 1108.593,443.290 C1108.593,425.423 1123.077,410.939 1140.944,410.939 C1158.811,410.939 1173.296,425.423 1173.296,443.290 C1173.296,461.157 1158.811,475.642 1140.944,475.642 ZM1140.944,392.703 C1123.077,392.703 1108.593,378.219 1108.593,360.352 C1108.593,342.484 1123.077,328.000 1140.944,328.000 C1158.811,328.000 1173.296,342.484 1173.296,360.352 C1173.296,378.219 1158.811,392.703 1140.944,392.703 ZM1058.056,1139.000 C1040.189,1139.000 1025.704,1124.516 1025.704,1106.648 C1025.704,1088.781 1040.189,1074.297 1058.056,1074.297 C1075.923,1074.297 1090.407,1088.781 1090.407,1106.648 C1090.407,1124.516 1075.923,1139.000 1058.056,1139.000 ZM1058.056,1056.061 C1040.189,1056.061 1025.704,1041.577 1025.704,1023.710 C1025.704,1005.843 1040.189,991.358 1058.056,991.358 C1075.923,991.358 1090.407,1005.843 1090.407,1023.710 C1090.407,1041.577 1075.923,1056.061 1058.056,1056.061 ZM1058.056,973.173 C1040.189,973.173 1025.704,958.689 1025.704,940.821 C1025.704,922.954 1040.189,908.470 1058.056,908.470 C1075.923,908.470 1090.407,922.954 1090.407,940.821 C1090.407,958.689 1075.923,973.173 1058.056,973.173 ZM1058.056,890.234 C1040.189,890.234 1025.704,875.750 1025.704,857.883 C1025.704,840.016 1040.189,825.531 1058.056,825.531 C1075.923,825.531 1090.407,840.016 1090.407,857.883 C1090.407,875.750 1075.923,890.234 1058.056,890.234 ZM1058.056,807.296 C1040.189,807.296 1025.704,792.811 1025.704,774.944 C1025.704,757.077 1040.189,742.593 1058.056,742.593 C1075.923,742.593 1090.407,757.077 1090.407,774.944 C1090.407,792.811 1075.923,807.296 1058.056,807.296 ZM1058.056,724.407 C1040.189,724.407 1025.704,709.923 1025.704,692.056 C1025.704,674.189 1040.189,659.704 1058.056,659.704 C1075.923,659.704 1090.407,674.189 1090.407,692.056 C1090.407,709.923 1075.923,724.407 1058.056,724.407 ZM1058.056,641.469 C1040.189,641.469 1025.704,626.984 1025.704,609.117 C1025.704,591.250 1040.189,576.766 1058.056,576.766 C1075.923,576.766 1090.407,591.250 1090.407,609.117 C1090.407,626.984 1075.923,641.469 1058.056,641.469 ZM1058.056,558.530 C1040.189,558.530 1025.704,544.046 1025.704,526.179 C1025.704,508.311 1040.189,493.827 1058.056,493.827 C1075.923,493.827 1090.407,508.311 1090.407,526.179 C1090.407,544.046 1075.923,558.530 1058.056,558.530 ZM1058.056,475.642 C1040.189,475.642 1025.704,461.157 1025.704,443.290 C1025.704,425.423 1040.189,410.939 1058.056,410.939 C1075.923,410.939 1090.407,425.423 1090.407,443.290 C1090.407,461.157 1075.923,475.642 1058.056,475.642 ZM1058.056,392.703 C1040.189,392.703 1025.704,378.219 1025.704,360.352 C1025.704,342.484 1040.189,328.000 1058.056,328.000 C1075.923,328.000 1090.407,342.484 1090.407,360.352 C1090.407,378.219 1075.923,392.703 1058.056,392.703 ZM975.117,1139.000 C957.250,1139.000 942.766,1124.516 942.766,1106.648 C942.766,1088.781 957.250,1074.297 975.117,1074.297 C992.984,1074.297 1007.469,1088.781 1007.469,1106.648 C1007.469,1124.516 992.984,1139.000 975.117,1139.000 ZM975.117,1056.061 C957.250,1056.061 942.766,1041.577 942.766,1023.710 C942.766,1005.843 957.250,991.358 975.117,991.358 C992.984,991.358 1007.469,1005.843 1007.469,1023.710 C1007.469,1041.577 992.984,1056.061 975.117,1056.061 ZM975.117,973.173 C957.250,973.173 942.766,958.689 942.766,940.821 C942.766,922.954 957.250,908.470 975.117,908.470 C992.984,908.470 1007.469,922.954 1007.469,940.821 C1007.469,958.689 992.984,973.173 975.117,973.173 ZM975.117,890.234 C957.250,890.234 942.766,875.750 942.766,857.883 C942.766,840.016 957.250,825.531 975.117,825.531 C992.984,825.531 1007.469,840.016 1007.469,857.883 C1007.469,875.750 992.984,890.234 975.117,890.234 ZM975.117,807.296 C957.250,807.296 942.766,792.811 942.766,774.944 C942.766,757.077 957.250,742.593 975.117,742.593 C992.984,742.593 1007.469,757.077 1007.469,774.944 C1007.469,792.811 992.984,807.296 975.117,807.296 ZM975.117,724.407 C957.250,724.407 942.766,709.923 942.766,692.056 C942.766,674.189 957.250,659.704 975.117,659.704 C992.984,659.704 1007.469,674.189 1007.469,692.056 C1007.469,709.923 992.984,724.407 975.117,724.407 ZM975.117,641.469 C957.250,641.469 942.766,626.984 942.766,609.117 C942.766,591.250 957.250,576.766 975.117,576.766 C992.984,576.766 1007.469,591.250 1007.469,609.117 C1007.469,626.984 992.984,641.469 975.117,641.469 ZM975.117,558.530 C957.250,558.530 942.766,544.046 942.766,526.179 C942.766,508.311 957.250,493.827 975.117,493.827 C992.984,493.827 1007.469,508.311 1007.469,526.179 C1007.469,544.046 992.984,558.530 975.117,558.530 ZM975.117,475.642 C957.250,475.642 942.766,461.157 942.766,443.290 C942.766,425.423 957.250,410.939 975.117,410.939 C992.984,410.939 1007.469,425.423 1007.469,443.290 C1007.469,461.157 992.984,475.642 975.117,475.642 ZM975.117,392.703 C957.250,392.703 942.766,378.219 942.766,360.352 C942.766,342.484 957.250,328.000 975.117,328.000 C992.984,328.000 1007.469,342.484 1007.469,360.352 C1007.469,378.219 992.984,392.703 975.117,392.703 ZM892.179,1139.000 C874.311,1139.000 859.827,1124.516 859.827,1106.648 C859.827,1088.781 874.311,1074.297 892.179,1074.297 C910.046,1074.297 924.530,1088.781 924.530,1106.648 C924.530,1124.516 910.046,1139.000 892.179,1139.000 ZM892.179,1056.061 C874.311,1056.061 859.827,1041.577 859.827,1023.710 C859.827,1005.843 874.311,991.358 892.179,991.358 C910.046,991.358 924.530,1005.843 924.530,1023.710 C924.530,1041.577 910.046,1056.061 892.179,1056.061 ZM892.179,973.173 C874.311,973.173 859.827,958.689 859.827,940.821 C859.827,922.954 874.311,908.470 892.179,908.470 C910.046,908.470 924.530,922.954 924.530,940.821 C924.530,958.689 910.046,973.173 892.179,973.173 ZM892.179,890.234 C874.311,890.234 859.827,875.750 859.827,857.883 C859.827,840.016 874.311,825.531 892.179,825.531 C910.046,825.531 924.530,840.016 924.530,857.883 C924.530,875.750 910.046,890.234 892.179,890.234 ZM892.179,807.296 C874.311,807.296 859.827,792.811 859.827,774.944 C859.827,757.077 874.311,742.593 892.179,742.593 C910.046,742.593 924.530,757.077 924.530,774.944 C924.530,792.811 910.046,807.296 892.179,807.296 ZM892.179,724.407 C874.311,724.407 859.827,709.923 859.827,692.056 C859.827,674.189 874.311,659.704 892.179,659.704 C910.046,659.704 924.530,674.189 924.530,692.056 C924.530,709.923 910.046,724.407 892.179,724.407 ZM892.179,641.469 C874.311,641.469 859.827,626.984 859.827,609.117 C859.827,591.250 874.311,576.766 892.179,576.766 C910.046,576.766 924.530,591.250 924.530,609.117 C924.530,626.984 910.046,641.469 892.179,641.469 ZM892.179,558.530 C874.311,558.530 859.827,544.046 859.827,526.179 C859.827,508.311 874.311,493.827 892.179,493.827 C910.046,493.827 924.530,508.311 924.530,526.179 C924.530,544.046 910.046,558.530 892.179,558.530 ZM892.179,475.642 C874.311,475.642 859.827,461.157 859.827,443.290 C859.827,425.423 874.311,410.939 892.179,410.939 C910.046,410.939 924.530,425.423 924.530,443.290 C924.530,461.157 910.046,475.642 892.179,475.642 ZM892.179,392.703 C874.311,392.703 859.827,378.219 859.827,360.352 C859.827,342.484 874.311,328.000 892.179,328.000 C910.046,328.000 924.530,342.484 924.530,360.352 C924.530,378.219 910.046,392.703 892.179,392.703 ZM809.290,1139.000 C791.423,1139.000 776.939,1124.516 776.939,1106.648 C776.939,1088.781 791.423,1074.297 809.290,1074.297 C827.157,1074.297 841.642,1088.781 841.642,1106.648 C841.642,1124.516 827.157,1139.000 809.290,1139.000 ZM809.290,1056.061 C791.423,1056.061 776.939,1041.577 776.939,1023.710 C776.939,1005.843 791.423,991.358 809.290,991.358 C827.157,991.358 841.642,1005.843 841.642,1023.710 C841.642,1041.577 827.157,1056.061 809.290,1056.061 ZM809.290,973.173 C791.423,973.173 776.939,958.689 776.939,940.821 C776.939,922.954 791.423,908.470 809.290,908.470 C827.157,908.470 841.642,922.954 841.642,940.821 C841.642,958.689 827.157,973.173 809.290,973.173 ZM809.290,890.234 C791.423,890.234 776.939,875.750 776.939,857.883 C776.939,840.016 791.423,825.531 809.290,825.531 C827.157,825.531 841.642,840.016 841.642,857.883 C841.642,875.750 827.157,890.234 809.290,890.234 ZM809.290,807.296 C791.423,807.296 776.939,792.811 776.939,774.944 C776.939,757.077 791.423,742.593 809.290,742.593 C827.157,742.593 841.642,757.077 841.642,774.944 C841.642,792.811 827.157,807.296 809.290,807.296 ZM809.290,724.407 C791.423,724.407 776.939,709.923 776.939,692.056 C776.939,674.189 791.423,659.704 809.290,659.704 C827.157,659.704 841.642,674.189 841.642,692.056 C841.642,709.923 827.157,724.407 809.290,724.407 ZM809.290,641.469 C791.423,641.469 776.939,626.984 776.939,609.117 C776.939,591.250 791.423,576.766 809.290,576.766 C827.157,576.766 841.642,591.250 841.642,609.117 C841.642,626.984 827.157,641.469 809.290,641.469 ZM809.290,558.530 C791.423,558.530 776.939,544.046 776.939,526.179 C776.939,508.311 791.423,493.827 809.290,493.827 C827.157,493.827 841.642,508.311 841.642,526.179 C841.642,544.046 827.157,558.530 809.290,558.530 ZM809.290,475.642 C791.423,475.642 776.939,461.157 776.939,443.290 C776.939,425.423 791.423,410.939 809.290,410.939 C827.157,410.939 841.642,425.423 841.642,443.290 C841.642,461.157 827.157,475.642 809.290,475.642 ZM809.290,392.703 C791.423,392.703 776.939,378.219 776.939,360.352 C776.939,342.484 791.423,328.000 809.290,328.000 C827.157,328.000 841.642,342.484 841.642,360.352 C841.642,378.219 827.157,392.703 809.290,392.703 ZM726.352,1139.000 C708.484,1139.000 694.000,1124.516 694.000,1106.648 C694.000,1088.781 708.484,1074.297 726.352,1074.297 C744.219,1074.297 758.703,1088.781 758.703,1106.648 C758.703,1124.516 744.219,1139.000 726.352,1139.000 ZM726.352,1056.061 C708.484,1056.061 694.000,1041.577 694.000,1023.710 C694.000,1005.843 708.484,991.358 726.352,991.358 C744.219,991.358 758.703,1005.843 758.703,1023.710 C758.703,1041.577 744.219,1056.061 726.352,1056.061 ZM726.352,973.173 C708.484,973.173 694.000,958.689 694.000,940.821 C694.000,922.954 708.484,908.470 726.352,908.470 C744.219,908.470 758.703,922.954 758.703,940.821 C758.703,958.689 744.219,973.173 726.352,973.173 ZM726.352,890.234 C708.484,890.234 694.000,875.750 694.000,857.883 C694.000,840.016 708.484,825.531 726.352,825.531 C744.219,825.531 758.703,840.016 758.703,857.883 C758.703,875.750 744.219,890.234 726.352,890.234 ZM726.352,807.296 C708.484,807.296 694.000,792.811 694.000,774.944 C694.000,757.077 708.484,742.593 726.352,742.593 C744.219,742.593 758.703,757.077 758.703,774.944 C758.703,792.811 744.219,807.296 726.352,807.296 ZM726.352,724.407 C708.484,724.407 694.000,709.923 694.000,692.056 C694.000,674.189 708.484,659.704 726.352,659.704 C744.219,659.704 758.703,674.189 758.703,692.056 C758.703,709.923 744.219,724.407 726.352,724.407 ZM726.352,641.469 C708.484,641.469 694.000,626.984 694.000,609.117 C694.000,591.250 708.484,576.766 726.352,576.766 C744.219,576.766 758.703,591.250 758.703,609.117 C758.703,626.984 744.219,641.469 726.352,641.469 ZM726.352,558.530 C708.484,558.530 694.000,544.046 694.000,526.179 C694.000,508.311 708.484,493.827 726.352,493.827 C744.219,493.827 758.703,508.311 758.703,526.179 C758.703,544.046 744.219,558.530 726.352,558.530 ZM726.352,475.642 C708.484,475.642 694.000,461.157 694.000,443.290 C694.000,425.423 708.484,410.939 726.352,410.939 C744.219,410.939 758.703,425.423 758.703,443.290 C758.703,461.157 744.219,475.642 726.352,475.642 ZM726.352,392.703 C708.484,392.703 694.000,378.219 694.000,360.352 C694.000,342.484 708.484,328.000 726.352,328.000 C744.219,328.000 758.703,342.484 758.703,360.352 C758.703,378.219 744.219,392.703 726.352,392.703 ZM1472.648,1074.297 C1490.516,1074.297 1505.000,1088.781 1505.000,1106.648 C1505.000,1124.516 1490.516,1139.000 1472.648,1139.000 C1454.781,1139.000 1440.297,1124.516 1440.297,1106.648 C1440.297,1088.781 1454.781,1074.297 1472.648,1074.297 Z" class="cls-1"/>
</svg>
