<?xml version="1.0" encoding="utf-8"?>
<!-- Generator: Adobe Illustrator 19.2.1, SVG Export Plug-In . SVG Version: 6.00 Build 0)  -->
<svg version="1.1" xmlns="http://www.w3.org/2000/svg" xmlns:xlink="http://www.w3.org/1999/xlink" x="0px" y="0px"
	 viewBox="0 0 500 500" style="enable-background:new 0 0 500 500;" xml:space="preserve">
<g id="Layer_1">
</g>
<g id="Layer_2">
	<g>
		<g>
			<path d="M123.5,174.1c9,8.3,13.4,19.6,13.4,33.9s-4.5,25.7-13.5,34c-9,8.3-20.8,12.5-35.3,12.5h-42V321H30V161.7h58.4
				C102.9,161.7,114.5,165.9,123.5,174.1z M111.6,232c6.1-5.5,9.2-13.5,9.2-23.9s-3.1-18.4-9.2-23.8c-6.1-5.4-14.4-8.2-24.7-8.2
				H46.1v64.2H87C97.3,240.2,105.5,237.5,111.6,232z"/>
		</g>
		<g>
			<path d="M171.6,321h-16.1V161.7h16.1V321z"/>
		</g>
		<g>
			<path d="M307.5,321h-14.5l-85.4-129.1V321h-16.1V161.7h15.7l84.3,126.9V161.7h16.1V321z"/>
		</g>
		<g>
			<path d="M434.5,199.3c1.5,8.2,2.3,22.2,2.3,42c0,19.8-0.8,33.8-2.3,42c-1.5,8.2-5.6,15.7-12.3,22.5
				c-10.7,10.9-24.2,16.4-40.3,16.4c-16.2,0-29.6-5.5-40.3-16.4c-6.7-6.8-10.8-14.3-12.3-22.5c-1.5-8.2-2.3-22.2-2.3-42
				c0-19.8,0.8-33.8,2.3-42c1.5-8.2,5.6-15.7,12.3-22.5c10.7-10.9,24.2-16.4,40.3-16.4c16.1,0,29.6,5.5,40.3,16.4
				C428.9,183.6,433,191.1,434.5,199.3z M418.7,278.4c1.3-7,2-19.4,2-37.1c0-17.7-0.7-30-2-37.1c-1.3-7-4.4-13-9.2-18
				c-7.3-7.7-16.5-11.6-27.6-11.6c-11.1,0-20.3,3.9-27.6,11.6c-4.8,5-7.9,11-9.2,18c-1.3,7-2,19.4-2,37.1c0,17.7,0.7,30,2,37.1
				c1.3,7,4.4,13,9.2,18c7.3,7.7,16.5,11.6,27.6,11.6c11.1,0,20.3-3.9,27.6-11.6C414.3,291.5,417.4,285.5,418.7,278.4z"/>
		</g>
		<circle cx="455.9" cy="193.4" r="8.1"/>
		<circle cx="480.9" cy="193.4" r="8.1"/>
		<circle cx="455.9" cy="168.4" r="8.1"/>
		<circle cx="480.9" cy="168.4" r="8.1"/>
	</g>
</g>
</svg>
